<svg xmlns="http://www.w3.org/2000/svg" viewBox="0 0 544.51 475.79"><defs><style>.cls-1{isolation:isolate;}.cls-13,.cls-2{fill:none;}.cls-10,.cls-13,.cls-2,.cls-3,.cls-4,.cls-5{stroke:#000;stroke-width:3px;}.cls-10,.cls-2{stroke-linecap:round;}.cls-10,.cls-2,.cls-3,.cls-4,.cls-5{stroke-linejoin:round;}.cls-3,.cls-6{fill:#3b94ec;}.cls-4,.cls-8,.cls-9{fill:#d8dbd7;}.cls-5{fill:#e8f2fc;}.cls-7,.cls-9{mix-blend-mode:multiply;}.cls-10{fill:#fff;}.cls-11{fill:#a660e6;}.cls-12{fill:#3381e0;}.cls-13{stroke-miterlimit:10;}</style></defs><title>content1</title><g class="cls-1"><g id="Layer_1" data-name="Layer 1"><polyline class="cls-2" points="345.79 450.29 369.9 474.29 434.04 410.15 434.04 370.97 394.84 331.77 329.81 397.01"/><polygon class="cls-2" points="434.04 370.97 434.01 370.94 414.46 390.49 434.04 410.07 434.04 370.97"/><path class="cls-2" d="M548.87,501.4h0a21.37,21.37,0,0,0-3,2.46h0a19.42,19.42,0,0,0-5.66,13.72h19.38l13.82-13.82A19.44,19.44,0,0,0,548.87,501.4Z" transform="translate(-195.63 -96.14)"/><path class="cls-3" d="M559.61,517.57H540.23a19.49,19.49,0,0,0,10.63,17.35" transform="translate(-195.63 -96.14)"/><path class="cls-2" d="M565.62,536.16a19.49,19.49,0,0,0,12.63-24.62l0,0a19.6,19.6,0,0,0-4.8-7.77l-13.82,13.82" transform="translate(-195.63 -96.14)"/><path class="cls-4" d="M559.61,517.57l-8.75,17.35a19.48,19.48,0,0,0,14.74,1.22Z" transform="translate(-195.63 -96.14)"/><line class="cls-2" x1="380.62" y1="371.77" x2="413.63" y2="404.78"/><line class="cls-2" x1="374.64" y1="377.75" x2="407.65" y2="410.76"/><line class="cls-2" x1="368.66" y1="383.73" x2="401.67" y2="416.74"/><line class="cls-2" x1="509.11" y1="378.4" x2="498.15" y2="378.4"/><path class="cls-2" d="M709.85,474.54A10.59,10.59,0,1,1,699.26,464,10.59,10.59,0,0,1,709.85,474.54Z" transform="translate(-195.63 -96.14)"/><line class="cls-2" x1="454.75" y1="432.62" x2="454.75" y2="444.04"/><line class="cls-2" x1="460.45" y1="438.33" x2="449.04" y2="438.33"/><line class="cls-2" x1="362.7" y1="261.26" x2="362.7" y2="272.67"/><line class="cls-2" x1="368.41" y1="266.96" x2="357" y2="266.96"/><path class="cls-2" d="M557.06,436.83a16.27,16.27,0,1,1,16.27-16.27A16.29,16.29,0,0,1,557.06,436.83Z" transform="translate(-195.63 -96.14)"/><line class="cls-2" x1="361.43" y1="312.95" x2="361.43" y2="335.9"/><path class="cls-2" d="M563.2,416.39c0-2.47-1.82-4.63-5.14-4.63h-2.22c-6.22,0-6.58,8-1,8.44.79.06,3.19,0,3.19,0,7.43-.06,6.36,9.15,0,9.15h-2.22a4.65,4.65,0,0,1-5-4.63" transform="translate(-195.63 -96.14)"/><rect class="cls-5" x="108.64" y="273.76" width="222.91" height="145.71" rx="7"/><rect class="cls-6" x="221.79" y="287.77" width="21.9" height="13.41" rx="1.19"/><path class="cls-6" d="M413.72,396.13a1.19,1.19,0,0,1-1.19,1.19H393a1.19,1.19,0,0,1-1.19-1.19v-11a1.18,1.18,0,0,1,1.19-1.18h19.52a1.19,1.19,0,0,1,1.19,1.18Z" transform="translate(-195.63 -96.14)"/><path class="cls-6" d="M388.12,396.13a1.19,1.19,0,0,1-1.19,1.19H367.41a1.19,1.19,0,0,1-1.2-1.19v-11a1.19,1.19,0,0,1,1.2-1.18h19.52a1.19,1.19,0,0,1,1.19,1.18Z" transform="translate(-195.63 -96.14)"/><path class="cls-6" d="M516.12,396.13a1.19,1.19,0,0,1-1.19,1.19H496.41a1.19,1.19,0,0,1-1.19-1.19v-11a1.18,1.18,0,0,1,1.19-1.18h18.52a1.18,1.18,0,0,1,1.19,1.18Z" transform="translate(-195.63 -96.14)"/><path class="cls-6" d="M489.52,396.13a1.19,1.19,0,0,1-1.19,1.19H469.81a1.19,1.19,0,0,1-1.19-1.19v-11a1.18,1.18,0,0,1,1.19-1.18h18.52a1.18,1.18,0,0,1,1.19,1.18Z" transform="translate(-195.63 -96.14)"/><path class="cls-6" d="M464.92,396.13a1.19,1.19,0,0,1-1.19,1.19H444.21a1.19,1.19,0,0,1-1.19-1.19v-11a1.18,1.18,0,0,1,1.19-1.18h19.52a1.18,1.18,0,0,1,1.19,1.18Z" transform="translate(-195.63 -96.14)"/><path class="cls-6" d="M362.51,396.13a1.18,1.18,0,0,1-1.18,1.19H341.8a1.19,1.19,0,0,1-1.19-1.19v-11a1.18,1.18,0,0,1,1.19-1.18h19.53a1.18,1.18,0,0,1,1.18,1.18Z" transform="translate(-195.63 -96.14)"/><rect class="cls-6" x="119.38" y="287.77" width="21.9" height="13.41" rx="1.19"/><path class="cls-6" d="M454.82,417.28a1.19,1.19,0,0,1-1.19,1.19H434.11a1.19,1.19,0,0,1-1.19-1.19v-11a1.19,1.19,0,0,1,1.19-1.19h19.52a1.19,1.19,0,0,1,1.19,1.19Z" transform="translate(-195.63 -96.14)"/><path class="cls-6" d="M429.22,417.28a1.19,1.19,0,0,1-1.19,1.19H408.51a1.19,1.19,0,0,1-1.19-1.19v-11a1.19,1.19,0,0,1,1.19-1.19H428a1.19,1.19,0,0,1,1.19,1.19Z" transform="translate(-195.63 -96.14)"/><path class="cls-6" d="M403.62,417.28a1.19,1.19,0,0,1-1.19,1.19H382.91a1.19,1.19,0,0,1-1.19-1.19v-11a1.19,1.19,0,0,1,1.19-1.19h19.52a1.19,1.19,0,0,1,1.19,1.19Z" transform="translate(-195.63 -96.14)"/><path class="cls-6" d="M505,417.28a1.19,1.19,0,0,1-1.19,1.19H485.32a1.19,1.19,0,0,1-1.2-1.19v-11a1.2,1.2,0,0,1,1.2-1.19h18.52a1.2,1.2,0,0,1,1.19,1.19Z" transform="translate(-195.63 -96.14)"/><path class="cls-6" d="M480.42,417.28a1.18,1.18,0,0,1-1.18,1.19H459.71a1.19,1.19,0,0,1-1.19-1.19v-11a1.19,1.19,0,0,1,1.19-1.19h19.53a1.19,1.19,0,0,1,1.18,1.19Z" transform="translate(-195.63 -96.14)"/><path class="cls-6" d="M378,417.28a1.19,1.19,0,0,1-1.19,1.19H357.31a1.19,1.19,0,0,1-1.19-1.19v-11a1.19,1.19,0,0,1,1.19-1.19h19.52a1.19,1.19,0,0,1,1.19,1.19Z" transform="translate(-195.63 -96.14)"/><path class="cls-6" d="M352.42,417.28a1.19,1.19,0,0,1-1.19,1.19H331.71a1.19,1.19,0,0,1-1.19-1.19v-11a1.19,1.19,0,0,1,1.19-1.19h19.52a1.19,1.19,0,0,1,1.19,1.19Z" transform="translate(-195.63 -96.14)"/><path class="cls-6" d="M449.71,459.57c0,.66.66,1.19,0,1.19h-15.6a1.19,1.19,0,0,1-1.19-1.19v-11a1.18,1.18,0,0,1,1.19-1.18h10.58a1.18,1.18,0,0,1,1.18,1.18Z" transform="translate(-195.63 -96.14)"/><path class="cls-6" d="M429.22,459.57a1.19,1.19,0,0,1-1.19,1.19H408.51a1.19,1.19,0,0,1-1.19-1.19v-11a1.18,1.18,0,0,1,1.19-1.18H428a1.18,1.18,0,0,1,1.19,1.18Z" transform="translate(-195.63 -96.14)"/><path class="cls-6" d="M403.62,459.57a1.19,1.19,0,0,1-1.19,1.19H382.91a1.19,1.19,0,0,1-1.19-1.19v-11a1.18,1.18,0,0,1,1.19-1.18h19.52a1.18,1.18,0,0,1,1.19,1.18Z" transform="translate(-195.63 -96.14)"/><path class="cls-6" d="M439.62,438.43a1.18,1.18,0,0,1-1.19,1.18H418.91a1.18,1.18,0,0,1-1.19-1.18v-11a1.19,1.19,0,0,1,1.19-1.19h19.52a1.19,1.19,0,0,1,1.19,1.19Z" transform="translate(-195.63 -96.14)"/><path class="cls-6" d="M414,438.43a1.18,1.18,0,0,1-1.19,1.18H393.31a1.18,1.18,0,0,1-1.19-1.18v-11a1.19,1.19,0,0,1,1.19-1.19h19.52a1.19,1.19,0,0,1,1.19,1.19Z" transform="translate(-195.63 -96.14)"/><path class="cls-6" d="M388.42,438.43a1.18,1.18,0,0,1-1.19,1.18h-3.91l-1.2-5.93-6.59-1.29L370,439.61h-2.29a1.18,1.18,0,0,1-1.19-1.18v-11a1.19,1.19,0,0,1,1.19-1.19h19.52a1.19,1.19,0,0,1,1.19,1.19Z" transform="translate(-195.63 -96.14)"/><path class="cls-6" d="M516.43,438.43a1.19,1.19,0,0,1-1.19,1.18H508.6l-4.53-9.68-6.87,2.28-.48,7.4a1.18,1.18,0,0,1-1.19-1.18v-11a1.18,1.18,0,0,1,1.19-1.19h18.52a1.19,1.19,0,0,1,1.19,1.19Z" transform="translate(-195.63 -96.14)"/><path class="cls-6" d="M461.22,439.61h-5.43c-.39,0-2.63-5.63-6.08-6.7-2.36-.74-6.39,3.06-6.39,2.79v-8.31a1.19,1.19,0,0,1,1.19-1.19h13.83C459,426.2,461.88,439.61,461.22,439.61Z" transform="translate(-195.63 -96.14)"/><path class="cls-6" d="M337.22,432.64c0,.66-2.68,7-3.34,7h-4.51l-.74-8.22-6.81-1.18-5.31,9.4a1.18,1.18,0,0,1-1.19-1.18v-11a1.19,1.19,0,0,1,1.19-1.19H336a1.19,1.19,0,0,1,1.19,1.19Z" transform="translate(-195.63 -96.14)"/><path class="cls-6" d="M376.69,482.79a1,1,0,0,0,1.05,1h65.9a1,1,0,0,0,1.05-1v-10a1,1,0,0,0-1.05-1.05h-65.9a1,1,0,0,0-1.05,1.05Z" transform="translate(-195.63 -96.14)"/><path class="cls-5" d="M531.45,353.6c-2,4.52-3.76,8.38-8.39,8.38H309.68c-4.63,0-6.73-5-8.38-8.38l-24.15-46.4c-2.58-4.73-3.56-8.79,8.39-8.38H548.82c10.84-.16,8,4.39,6.28,8.34Z" transform="translate(-195.63 -96.14)"/><path class="cls-6" d="M296.08,305.55c17,40,12.31,29.1,21.21,49.61H515.21l21.2-49.77C453.55,305.39,296.08,305.55,296.08,305.55Z" transform="translate(-195.63 -96.14)"/><g class="cls-7"><path class="cls-8" d="M382.82,438.89c-.43,1.29-20.55,59.67-23.28,66.93-.42,1.1-.8,2.13-1.17,3.09,2.82-.67,6.24-1.5,9.53-2.32.09-.26.19-.5.29-.77,2.73-7.26,22.85-65.64,23.27-66.93,1.37-4.15-5.52-9.93-9.93-4.58A4.85,4.85,0,0,1,382.82,438.89Z" transform="translate(-195.63 -96.14)"/><path class="cls-8" d="M351,428.24c-.11.73-7.33,21.14-13.5,38.81a.62.62,0,0,0,1.22.13l.1-.1a5.87,5.87,0,0,1,.37-.59c2.21-5.3,15.48-36.87,18.22-40.84a7.84,7.84,0,0,1,1.29-1.47c-1.85-2.87-5.87-4.3-9-.49A6.08,6.08,0,0,1,351,428.24Z" transform="translate(-195.63 -96.14)"/><path class="cls-8" d="M367.86,429.54c-.25.78-8.94,25.71-15.41,44.34a.93.93,0,0,0,.69,1.08c1.23.46,1.91-1.64,1.91-1.64s8.62-20.4,11.55-26.57c1.67-3.54,4.66-10.1,5.76-11.75a6.26,6.26,0,0,1,3.17-2.61l1-2.85c1.37-4.16-5.44-9.87-9.92-4.58A4.79,4.79,0,0,1,367.86,429.54Z" transform="translate(-195.63 -96.14)"/><path class="cls-8" d="M324,465.62c.82-2.24,8.17-22.23,12.95-33.69-2.13-2.32-5.86-3.11-8.4.28A5.91,5.91,0,0,1,330,436C330,436.6,327.11,450.58,324,465.62Z" transform="translate(-195.63 -96.14)"/></g><path class="cls-9" d="M359.25,531.18c.83-.3,1.68-.6,2.56-.94,9.65-3.84,28.08-10.66,36.3-14.67,2.53-1.88,4.27-5.72,2.51-8.82s-5.78-5.16-11.68-3.31l-.43.12a7.73,7.73,0,0,1,3.46,3.19c1.76,3.1,0,6.94-2.51,8.82-8.22,4-26.65,10.83-36.3,14.67-.88.34-1.72.64-2.56.94h-2.5l-10,3.33a45,45,0,0,1-5.16.57l-2.07,5.5,2.95,1.68a1.24,1.24,0,0,1,.73,1.58l-8.72,23.09h8.81l8.55-23.09a1.22,1.22,0,0,0-.72-1.58L340,540.58Z" transform="translate(-195.63 -96.14)"/><path class="cls-10" d="M296.22,527.94l2.77-7.38s-5.86-8,.16-24.07l6.31-16.79s.41-1.19,1.16-2.9l4.15-11.08c0-.13.1-.25.15-.37,2.68-11.79,6.71-28.77,8.23-31.79,3.53-7,10.94-2.63,10.89,2.44,0,.6-2.89,14.58-6,29.62,1.09-3,13.64-37.12,16.5-41.27,4.45-6.45,11.2-1.13,10.46,3.89-.11.73-7.33,21.14-13.49,38.81a.62.62,0,0,0,1.22.13l.1-.1a5.8,5.8,0,0,1,.36-.59c2.22-5.29,15.49-36.87,18.22-40.84,4.45-6.45,11.88-.43,10.46,3.89-.26.78-9,25.71-15.42,44.34a.94.94,0,0,0,.69,1.08c1.23.46,1.92-1.63,1.92-1.63s8.61-20.41,11.54-26.58c1.68-3.54,4.66-10.1,5.76-11.75,4.36-6.51,11.88-.43,10.46,3.89-.43,1.29-20.55,59.67-23.28,66.93-.41,1.1-.8,2.13-1.17,3.1,8.12-1.94,21.12-5.23,21.93-5.48,5.89-1.85,9.88.15,11.67,3.31s0,6.94-2.5,8.83c-8.22,4-26.65,10.82-36.3,14.66-8.74,3.38-15.37,4.61-20.24,4.84l-2.22,5.9Z" transform="translate(-195.63 -96.14)"/><path class="cls-2" d="M325.88,566.93l8.7-23.09a1.24,1.24,0,0,0-.73-1.58l-40-14.9a1.23,1.23,0,0,0-1.58.73l-14.56,38.84" transform="translate(-195.63 -96.14)"/><path class="cls-9" d="M485.76,540.58l-2.43,1.68a1.22,1.22,0,0,0-.72,1.58l8.58,23.09H500l-8.75-23.09a1.24,1.24,0,0,1,.73-1.58l2.95-1.68-2.07-5.5a59.39,59.39,0,0,1-15.64-3.21l-1.4-.69h-.63c-.84-.3-1.68-.6-2.56-.94-9.66-3.84-28.08-10.66-36.31-14.67-2.53-1.88-4.27-5.72-2.5-8.82a7.68,7.68,0,0,1,3.46-3.19l-.43-.12c-5.9-1.85-9.89.15-11.68,3.31s0,6.94,2.5,8.82c8.23,4,26.65,10.83,36.31,14.67.88.34,1.72.64,2.56.94Z" transform="translate(-195.63 -96.14)"/><path class="cls-9" d="M443,438.89c.43,1.29,20.55,59.67,23.28,66.93q.62,1.65,1.17,3.09c-2.83-.67-6.24-1.5-9.53-2.32l-.29-.77c-2.73-7.26-22.85-65.64-23.28-66.93-1.36-4.15,5.53-9.93,9.94-4.58A4.83,4.83,0,0,0,443,438.89Z" transform="translate(-195.63 -96.14)"/><path class="cls-9" d="M474.79,428.24c.11.73,7.33,21.14,13.5,38.81a.63.63,0,0,1-1.23.13l-.09-.1c-.12-.21-.24-.4-.37-.59-2.22-5.3-15.48-36.87-18.22-40.84a8.22,8.22,0,0,0-1.29-1.47c1.84-2.87,5.87-4.3,9-.49A6,6,0,0,0,474.79,428.24Z" transform="translate(-195.63 -96.14)"/><path class="cls-9" d="M457.92,429.54c.26.78,8.95,25.71,15.42,44.34a.94.94,0,0,1-.69,1.08c-1.23.46-1.91-1.64-1.91-1.64s-8.62-20.4-11.55-26.57c-1.67-3.54-4.66-10.1-5.76-11.75a6.34,6.34,0,0,0-3.17-2.61c-.58-1.68-.94-2.71-1-2.85-1.36-4.16,5.45-9.87,9.93-4.58A4.82,4.82,0,0,0,457.92,429.54Z" transform="translate(-195.63 -96.14)"/><path class="cls-9" d="M501.75,465.62c-.82-2.24-8.17-22.23-13-33.69,2.14-2.32,5.87-3.11,8.41.28a5.91,5.91,0,0,0-1.4,3.79C495.8,436.6,498.68,450.58,501.75,465.62Z" transform="translate(-195.63 -96.14)"/><path class="cls-10" d="M529.57,527.94l-2.77-7.38s5.86-8-.16-24.07l-6.31-16.79s-.41-1.19-1.16-2.9L515,465.72l-.15-.37c-2.69-11.79-6.71-28.77-8.23-31.79-3.53-7-10.94-2.63-10.89,2.44,0,.6,2.89,14.58,6,29.62-1.09-3-13.65-37.12-16.5-41.27-4.45-6.45-11.2-1.13-10.46,3.89.11.73,7.33,21.14,13.49,38.81a.62.62,0,0,1-1.22.13l-.1-.1a5.8,5.8,0,0,0-.36-.59c-2.22-5.29-15.49-36.87-18.22-40.84-4.45-6.45-11.88-.43-10.46,3.89.26.78,8.95,25.71,15.42,44.34a.94.94,0,0,1-.69,1.08c-1.23.46-1.92-1.63-1.92-1.63s-8.61-20.41-11.54-26.58c-1.68-3.54-4.66-10.1-5.76-11.75-4.36-6.51-11.88-.43-10.46,3.89.42,1.29,20.55,59.67,23.28,66.93.41,1.1.8,2.13,1.17,3.1-8.12-1.94-21.12-5.23-21.93-5.48-5.9-1.85-9.88.15-11.68,3.31s0,6.94,2.51,8.83c8.22,4,26.65,10.82,36.3,14.66,8.74,3.38,15.37,4.61,20.24,4.84L495,541Z" transform="translate(-195.63 -96.14)"/><path class="cls-2" d="M500,566.93l-8.79-23.09a1.23,1.23,0,0,1,.72-1.58l40-14.9a1.24,1.24,0,0,1,1.58.73l14.53,38.84" transform="translate(-195.63 -96.14)"/><path class="cls-2" d="M607.6,528.7a200,200,0,0,1,11.5,38.22" transform="translate(-195.63 -96.14)"/><path class="cls-2" d="M527.17,434.06a202.46,202.46,0,0,1,32.54,25.07" transform="translate(-195.63 -96.14)"/><path class="cls-2" d="M250.8,497a203,203,0,0,1,53.46-56" transform="translate(-195.63 -96.14)"/><path class="cls-2" d="M222.79,566.93a200,200,0,0,1,10.53-35.85" transform="translate(-195.63 -96.14)"/><polyline class="cls-2" points="84.31 461.29 20.51 425.24 39.32 391.94 101.63 427.13"/><path class="cls-2" d="M258,509.58l-19.66-11.11-11.9,21,19.68,11.12m45.38-2.12-20.07-11.35m-11.91,21,24,13.17" transform="translate(-195.63 -96.14)"/><path class="cls-2" d="M271.25,531a14.34,14.34,0,1,1-5.43-19.54A14.35,14.35,0,0,1,271.25,531Z" transform="translate(-195.63 -96.14)"/><path class="cls-2" d="M252,525.6a3.84,3.84,0,0,0,1.68,5.33l1.58.9c4.59,2.59,9.37-4.19,4-7.11l-1.5-1.05c-4.68-2.58-.71-9.74,4-7.1l1.59.9c2.37,1.34,2.81,3.62,1.81,5.4" transform="translate(-195.63 -96.14)"/><path class="cls-6" d="M281.22,537.77a3.89,3.89,0,1,1-1.47-5.29A3.9,3.9,0,0,1,281.22,537.77Z" transform="translate(-195.63 -96.14)"/><path class="cls-6" d="M236.71,516.89a3.89,3.89,0,0,1,3.82-6.77C245,512.65,241.18,519.42,236.71,516.89Z" transform="translate(-195.63 -96.14)"/><line class="cls-2" x1="68.38" y1="418.63" x2="57.67" y2="437.58"/><path class="cls-8" d="M684.39,371.38c.89,0,1.76,0,2.64.11h0V275.07H586.73V409.25h61.6c0-.59,0-1.18,0-1.78A36.09,36.09,0,0,1,684.39,371.38Z" transform="translate(-195.63 -96.14)"/><path class="cls-2" d="M714.32,428.56l22.31,22.12a6.68,6.68,0,0,1,.11,9.45l-.13.13a6.67,6.67,0,0,1-9.45-.12L704.85,438" transform="translate(-195.63 -96.14)"/><path class="cls-2" d="M720.49,407.47a36.1,36.1,0,1,1-36.1-36.09A36.1,36.1,0,0,1,720.49,407.47Z" transform="translate(-195.63 -96.14)"/><path class="cls-11" d="M710.74,407.48a26.36,26.36,0,1,1-26.35-26.36A26.35,26.35,0,0,1,710.74,407.48Z" transform="translate(-195.63 -96.14)"/><rect class="cls-6" x="407.1" y="211.55" width="22.81" height="12.31"/><rect class="cls-6" x="429.85" y="223.85" width="22.81" height="12.31"/><rect class="cls-2" x="407.1" y="187.85" width="68.46" height="14.46"/><rect class="cls-2" x="407.1" y="211.55" width="68.46" height="24.61"/><line class="cls-2" x1="407.1" y1="223.85" x2="475.56" y2="223.85"/><line class="cls-2" x1="452.75" y1="211.55" x2="452.75" y2="236.16"/><line class="cls-2" x1="429.91" y1="211.55" x2="429.91" y2="236.16"/><line class="cls-2" x1="407.1" y1="251.56" x2="475.56" y2="251.56"/><line class="cls-2" x1="407.1" y1="260.16" x2="475.56" y2="260.16"/><line class="cls-2" x1="407.1" y1="268.76" x2="475.56" y2="268.76"/><path class="cls-2" d="M435.84,122.05l8.79-7.39,4.16,5.09,8.75-7.29" transform="translate(-195.63 -96.14)"/><polyline class="cls-2" points="258.52 14.27 263.74 14.8 263.91 14.8 263.26 20.01"/><rect class="cls-6" x="232.59" y="99.91" width="8.9" height="18.75"/><rect class="cls-6" x="246.63" y="89.31" width="8.9" height="29.21"/><rect class="cls-6" x="260.68" y="81.74" width="8.9" height="36.78"/><path class="cls-2" d="M482.62,196.8a34.95,34.95,0,1,1-34.95-34.94A35,35,0,0,1,482.62,196.8Z" transform="translate(-195.63 -96.14)"/><line class="cls-2" x1="252.04" y1="65.72" x2="252.04" y2="40.13"/><line class="cls-2" x1="226.49" y1="76.83" x2="207.77" y2="59.38"/><line class="cls-2" x1="217.18" y1="103.1" x2="191.66" y2="104.89"/><line class="cls-2" x1="230.05" y1="127.82" x2="213.95" y2="147.71"/><path class="cls-12" d="M391.14,130.76a.75.75,0,0,1,1.35,0l2.42,4.9a1.44,1.44,0,0,0,1.09.79l5.42.79a.75.75,0,0,1,.41,1.28l-3.92,3.82a1.44,1.44,0,0,0-.41,1.28l.92,5.39a.75.75,0,0,1-1.09.79l-4.84-2.55a1.46,1.46,0,0,0-1.35,0l-4.84,2.55a.75.75,0,0,1-1.09-.79l.93-5.39a1.45,1.45,0,0,0-.42-1.28l-3.92-3.82a.75.75,0,0,1,.42-1.28l5.41-.79a1.44,1.44,0,0,0,1.09-.79Z" transform="translate(-195.63 -96.14)"/><path class="cls-13" d="M410.69,140.11a18.88,18.88,0,1,1-18.87-18.87A18.87,18.87,0,0,1,410.69,140.11Z" transform="translate(-195.63 -96.14)"/><circle class="cls-13" cx="447.67" cy="116.51" r="18.87" transform="translate(-146.89 254.54) rotate(-45)"/><path class="cls-13" d="M386.57,201a18.88,18.88,0,1,1-18.87-18.88A18.87,18.87,0,0,1,386.57,201Z" transform="translate(-195.63 -96.14)"/><path class="cls-12" d="M371.7,195.37a4,4,0,1,1-4-4A4,4,0,0,1,371.7,195.37Z" transform="translate(-195.63 -96.14)"/><path class="cls-12" d="M376.23,207.27l-2.58-5.79a6.45,6.45,0,0,0-1.28-1.92,5.95,5.95,0,0,1-9.35,0,6.64,6.64,0,0,0-1.28,1.92l-2.58,5.79c-.67,1.52.17,3.41,1.52,3.41h14C376.06,210.68,376.91,208.79,376.23,207.27Z" transform="translate(-195.63 -96.14)"/><path class="cls-13" d="M419.2,262.05a18.87,18.87,0,1,1-18.87-18.87A18.87,18.87,0,0,1,419.2,262.05Z" transform="translate(-195.63 -96.14)"/><rect class="cls-8" x="196.47" y="154.98" width="16.47" height="21.85"/><line class="cls-2" x1="200.38" y1="160.3" x2="209.03" y2="160.3"/><line class="cls-2" x1="200.38" y1="164.89" x2="209.03" y2="164.89"/><line class="cls-2" x1="200.38" y1="169.48" x2="209.03" y2="169.48"/><path class="cls-2" d="M242.53,414.34c-13.62,0-24.65,8.3-24.65,18.54,0,7.06,5.25,13.2,13,16.33-1.42,3.47-3.79,7.59-7.59,10.11,5.18-.55,12.76-3.73,18.32-7.92l.94,0c13.61,0,24.64-8.3,24.64-18.54S256.14,414.34,242.53,414.34Z" transform="translate(-195.63 -96.14)"/><path class="cls-6" d="M233,432.82a3.53,3.53,0,1,1-3.53-3.52A3.53,3.53,0,0,1,233,432.82Z" transform="translate(-195.63 -96.14)"/><path class="cls-6" d="M246.33,432.91a3.53,3.53,0,1,1-3.52-3.52A3.52,3.52,0,0,1,246.33,432.91Z" transform="translate(-195.63 -96.14)"/><path class="cls-6" d="M259.65,432.91a3.53,3.53,0,1,1-3.53-3.52A3.52,3.52,0,0,1,259.65,432.91Z" transform="translate(-195.63 -96.14)"/><path class="cls-2" d="M216.22,352.82A19.17,19.17,0,1,0,235.46,372H216.22Z" transform="translate(-195.63 -96.14)"/><path class="cls-11" d="M221,349.64h-.07v17.63h17.71A17.64,17.64,0,0,0,221,349.64Z" transform="translate(-195.63 -96.14)"/><rect class="cls-11" x="10.64" y="174.08" width="10.09" height="27.59"/><rect class="cls-11" x="28.83" y="158.48" width="10.08" height="42.98"/><rect class="cls-11" x="47.02" y="147.34" width="10.09" height="54.12"/><line class="cls-2" x1="10.64" y1="210.52" x2="57.11" y2="210.52"/></g></g></svg>