<svg id="OBJECTS" xmlns="http://www.w3.org/2000/svg" xmlns:xlink="http://www.w3.org/1999/xlink" viewBox="0 0 204.88 238.33"><defs><style>.cls-1{fill:none;}.cls-2{fill:#a660e6;}.cls-3{fill:#fffefe;}.cls-4{opacity:0.83;}.cls-5{fill:#3b94ec;}.cls-6{fill:#fff;}.cls-7{fill:#22272d;opacity:0.53;}.cls-8{clip-path:url(#clip-path);}.cls-9{fill:url(#Degradado_sin_nombre_117);}.cls-10{fill:#ced8d8;}.cls-11{fill:#ffd9b0;}.cls-12{fill:#f2ba83;}.cls-13{fill:#1f7ecc;}.cls-14{fill:#d8d8d8;}.cls-15{fill:#224e6c;}.cls-16{fill:#173f56;}.cls-17{fill:#f2f2f2;opacity:0.51;}.cls-18{fill:#768e8e;}.cls-19{fill:#7e21d4;}</style><clipPath id="clip-path" transform="translate(-147.56 -130.83)"><rect class="cls-1" x="298.78" y="203.92" width="53.66" height="9.34" rx="4.67"/></clipPath><linearGradient id="Degradado_sin_nombre_117" x1="177.41" y1="373.85" x2="177.41" y2="58.36" gradientUnits="userSpaceOnUse"><stop offset="0" stop-color="#ffece8"/><stop offset="1" stop-color="#fff"/></linearGradient></defs><title>2192059</title><rect class="cls-2" x="128.24" y="12.81" width="63.54" height="51.1"/><rect class="cls-3" x="159.96" y="17.34" width="17.69" height="18.03" rx="2.37"/><rect class="cls-3" x="182.3" y="17.34" width="17.69" height="18.03" rx="2.37"/><rect class="cls-3" x="159.42" y="38.76" width="17.69" height="18.03" rx="2.37"/><rect class="cls-3" x="181.76" y="38.76" width="17.69" height="18.03" rx="2.37"/><g class="cls-4"><rect class="cls-5" x="110.02" y="2.17" width="47.07" height="21.27"/><path class="cls-6" d="M268.93,144.73H259V134.27h9.93Zm-9.18-.75h8.42v-9h-8.42Z" transform="translate(-147.56 -130.83)"/><rect class="cls-7" x="122.65" y="4.48" width="32.58" height="1.4" rx="0.7"/><rect class="cls-7" x="122.65" y="7.97" width="32.58" height="1.4" rx="0.7"/><rect class="cls-7" x="122.65" y="11.79" width="32.58" height="1.4" rx="0.7"/><rect class="cls-7" x="112.2" y="15.78" width="43.03" height="1.4" rx="0.7"/><rect class="cls-7" x="112.2" y="19.6" width="32.58" height="1.4" rx="0.7"/></g><g class="cls-8"><rect class="cls-3" x="151.22" y="73.09" width="53.66" height="9.34"/></g><rect class="cls-9" x="150.58" y="85.82" width="53.66" height="9.34" rx="4.67"/><path class="cls-5" d="M296.91,208.87a5.81,5.81,0,1,1,5.81-5.81A5.82,5.82,0,0,1,296.91,208.87Zm0-10.12a4.31,4.31,0,1,0,4.31,4.31A4.32,4.32,0,0,0,296.91,198.75Z" transform="translate(-147.56 -130.83)"/><path class="cls-5" d="M296.09,206.38h0a.75.75,0,0,1-.53-.22l-2.32-2.37a.75.75,0,0,1,1.07-1l1.79,1.82,3.44-3.45a.74.74,0,0,1,1.06,0,.75.75,0,0,1,0,1.06l-4,4A.75.75,0,0,1,296.09,206.38Z" transform="translate(-147.56 -130.83)"/><path class="cls-5" d="M296.5,222.63a5.81,5.81,0,1,1,5.81-5.81A5.82,5.82,0,0,1,296.5,222.63Zm0-10.12a4.31,4.31,0,1,0,4.31,4.31A4.32,4.32,0,0,0,296.5,212.51Z" transform="translate(-147.56 -130.83)"/><path class="cls-5" d="M295.68,220.14h0a.75.75,0,0,1-.53-.22l-2.32-2.37a.75.75,0,1,1,1.07-1.05l1.79,1.82,3.44-3.45a.75.75,0,0,1,1.06,0,.76.76,0,0,1,0,1.07l-4,4A.75.75,0,0,1,295.68,220.14Z" transform="translate(-147.56 -130.83)"/><rect class="cls-10" x="156.02" y="79.51" width="38.49" height="0.66" rx="0.33"/><rect class="cls-10" x="156.02" y="77.04" width="35.34" height="0.72" rx="0.36"/><rect class="cls-10" x="156.02" y="88.68" width="35.34" height="0.62" rx="0.31"/><rect class="cls-10" x="156.41" y="90.9" width="42.95" height="0.9" rx="0.45"/><ellipse class="cls-2" cx="133.89" cy="230.03" rx="63.51" ry="8.3"/><path class="cls-5" d="M174.75,184.67h24.72v53.39s1.69,13.17,17.92,6.6c0,0-4,14.38-17.38,16.89-12.16,2.28-23.39-7.2-23.84-19.56C175.44,221.81,174.24,186.56,174.75,184.67Z" transform="translate(-147.56 -130.83)"/><circle class="cls-5" cx="41.24" cy="32.27" r="15.59"/><path class="cls-11" d="M261,198.32c.08.26.16.51.25.77l-.23.08a21.22,21.22,0,0,1-5.86,4.72,3.76,3.76,0,0,1-2.11.62,2.82,2.82,0,0,1-2.21-2,6.87,6.87,0,0,1-.2-2.44h0c.06-.35.11-.7.14-1.06a21.85,21.85,0,0,0-.1-5.48,16.21,16.21,0,0,1-5.32-3.75,10,10,0,0,1-2.64-6,14.19,14.19,0,0,1,0-1.6,36,36,0,0,0,.35-4c0-1.45-.41-2.86-.54-4.3a5.84,5.84,0,0,1,.85-4,20.6,20.6,0,0,0,17.4,9.33l.08.23a10.66,10.66,0,0,0,1.47-1.53,1.58,1.58,0,0,1,1.91-.41,1.83,1.83,0,0,1,.54,1.48c0,3-1.54,5.9-3.37,8.34a9,9,0,0,0-1.49,2.38,6.32,6.32,0,0,0-.23,2.87l.09.7A33.68,33.68,0,0,0,261,198.32Z" transform="translate(-147.56 -130.83)"/><path class="cls-12" d="M259.09,189.71a16.68,16.68,0,0,1-8.09,3.38c-.46.06-.46.8,0,.73a17.36,17.36,0,0,0,8.46-3.48C259.83,190.06,259.47,189.42,259.09,189.71Z" transform="translate(-147.56 -130.83)"/><path class="cls-5" d="M243.41,169.89a5.84,5.84,0,0,0-.85,4c.13,1.44.5,2.85.54,4.3a36,36,0,0,1-.35,4,13.64,13.64,0,0,1,16.51-21.08,54.37,54.37,0,0,1,5.49,3.7,11,11,0,0,0,6.12,2.24,20.92,20.92,0,0,0,5-1.11,6.78,6.78,0,0,1,5,.18c1.79,1,2.58,3.12,3,5.12s.82,4.13,2.19,5.65c1.56,1.71,4,2.19,5.91,3.56a7.42,7.42,0,0,1-4,13.39c-3.81.18-7.66-2.53-11.21-1.15-1.73.68-3,2.21-4.52,3.22a8.56,8.56,0,0,1-6.83,1.08,9,9,0,0,1-5.64-4.38h0a6.32,6.32,0,0,1,.23-2.87,9,9,0,0,1,1.49-2.38c1.83-2.44,3.4-5.29,3.37-8.34a1.83,1.83,0,0,0-.54-1.48,1.58,1.58,0,0,0-1.91.41,10.66,10.66,0,0,1-1.47,1.53h0a21.53,21.53,0,0,1-10-2.68A20.81,20.81,0,0,1,243.41,169.89Z" transform="translate(-147.56 -130.83)"/><path class="cls-13" d="M292.6,183.36c-1.64-1.46-3.69-1.63-5.74-2.12-1.88-.44-3.28-1.27-3.78-3.26-.29-1.17-.24-2.41-.52-3.58a5.25,5.25,0,0,0-3.79-3.91c-2.53-.76-5.11.07-7.57.69-3.88,1-7,.63-10-2.31-3.55-3.55-6.59-9.69-12.61-8.41-.46.1-.27.81.2.71,6.44-1.37,9.26,6.53,13.54,9.65a8.72,8.72,0,0,0,6.47,1.6c2.6-.34,5.08-1.51,7.74-1.5a5.81,5.81,0,0,1,4.26,1.59c1,1.11,1.13,2.62,1.3,4,.21,1.64.51,3.24,1.89,4.3,1.58,1.22,3.72,1.18,5.56,1.72,3,.87,4.13,3.72,3.92,6.83,0,.47.7.47.73,0C294.37,187.18,294.28,184.85,292.6,183.36Z" transform="translate(-147.56 -130.83)"/><path class="cls-13" d="M281.38,186.61c-1.35-1.67-3.18-1.92-5.16-2.3a4.11,4.11,0,0,1-3.55-3c-.32-1.06-.44-2.17-.85-3.2a5.6,5.6,0,0,0-3.46-3.28c-2.5-.91-5.16-.32-7.72-.1-3.54.32-6.29-.53-8.43-3.45-2.38-3.24-4.49-8.08-9.34-7.3-.47.07-.27.78.19.71,5.48-.88,7.07,6.26,10.43,9.1,3.53,3,7.95,1.14,12.06,1.28,2.83.09,5.07,1.39,5.87,4.2.41,1.47.53,3.14,1.6,4.33s2.83,1.37,4.39,1.67c3.44.66,5.48,3.51,4.07,6.85-.18.43.53.62.71.19A5.3,5.3,0,0,0,281.38,186.61Z" transform="translate(-147.56 -130.83)"/><path class="cls-13" d="M263.87,184.43a.37.37,0,0,0-.64.37,11.09,11.09,0,0,0,4.27,3.88c2.32,1.43,5.46,3.55,3.85,6.77-.21.42.43.79.64.37C274.86,190.05,266,188.15,263.87,184.43Z" transform="translate(-147.56 -130.83)"/><path class="cls-14" d="M288.15,244.44" transform="translate(-147.56 -130.83)"/><path class="cls-6" d="M267.8,227.89c2.12-.36,4.24-.92,6.34-1.37l1.49-.28c3.39-.56,7-.6,9.9,1.1a6.21,6.21,0,0,1,2.57,2.58c0,.05,0,.11.08.17a3.68,3.68,0,0,1-.29,3.67,5.23,5.23,0,0,1-2.05,1.47A24.3,24.3,0,0,1,271.3,237a32.1,32.1,0,0,1-9.8-3.42l1.13-5.38A19.49,19.49,0,0,0,267.8,227.89Z" transform="translate(-147.56 -130.83)"/><path class="cls-6" d="M281.72,207.39c2.72,7.34,5.44,14.78,6.38,22.53a6.21,6.21,0,0,0-2.57-2.58c-2.93-1.7-6.51-1.66-9.9-1.1l0-.15L273,220c-.58-1.35-1.17-2.69-1.68-4a28.75,28.75,0,0,1-1.11-3.52,15.57,15.57,0,0,1,0-8,6.93,6.93,0,0,1,3.51-4.52v0a10.05,10.05,0,0,1,5.88,3.18A14.87,14.87,0,0,1,281.72,207.39Z" transform="translate(-147.56 -130.83)"/><path class="cls-6" d="M261.2,199.09c-.09-.26-.17-.51-.25-.77,3,1.08,6.25,1,9.41,1.15a22.09,22.09,0,0,1,3.31.44v0a6.93,6.93,0,0,0-3.51,4.52,15.57,15.57,0,0,0,0,8,28.75,28.75,0,0,0,1.11,3.52l-.16.06a15.91,15.91,0,0,1-1.3,4.1,50.7,50.7,0,0,0-2,7.17,1.75,1.75,0,0,0-.06.6,19.49,19.49,0,0,1-5.17.28l-1.13,5.38a32.1,32.1,0,0,0,9.8,3.42l0,.22,6.77,4.05c.91.55,1.82,1.1,2.71,1.68l-.38.59a31.47,31.47,0,0,1-12,7.72c-.79.3-1.6.58-2.41.84a44.61,44.61,0,0,1-17.63,1.9l-.45.1a1.09,1.09,0,0,0,0,.17,97.51,97.51,0,0,1-3.63-28.68,9.73,9.73,0,0,1-3.87-1.24A5,5,0,0,1,238,221a7.31,7.31,0,0,1,.61-3.61c.09-.25.18-.5.28-.75a3.66,3.66,0,0,1-2.71,1.08,4.61,4.61,0,0,1-3.22-.86c-1.4-1.19-1.4-3.38-.83-5.14a22,22,0,0,1,4-6.57h0q1.56-1.94,3.11-3.89a4.55,4.55,0,0,1,.81-.83,4.09,4.09,0,0,1,1.49-.53,46,46,0,0,1,9.21-.93c0,.36-.08.71-.14,1.06h0a6.87,6.87,0,0,0,.2,2.44,2.82,2.82,0,0,0,2.21,2,3.76,3.76,0,0,0,2.11-.62,21.22,21.22,0,0,0,5.86-4.72Z" transform="translate(-147.56 -130.83)"/><path class="cls-14" d="M247.29,201.29a91.88,91.88,0,0,0-8.93,15.2c-.2.42.43.79.63.37a91.88,91.88,0,0,1,8.93-15.2C248.2,201.28,247.56,200.91,247.29,201.29Z" transform="translate(-147.56 -130.83)"/><path class="cls-14" d="M271.26,215.45l-4.11-11.37c-.16-.44-.87-.25-.71.19l4.11,11.38C270.71,216.09,271.42,215.9,271.26,215.45Z" transform="translate(-147.56 -130.83)"/><path class="cls-14" d="M268,213q-2.47-3.16-4.93-6.34c-.29-.37-.81.15-.52.52q2.46,3.18,4.93,6.34C267.78,213.88,268.29,213.35,268,213Z" transform="translate(-147.56 -130.83)"/><path class="cls-14" d="M261.25,216.19a98.41,98.41,0,0,0-15.53,6.72c-.42.23-.05.86.37.64a97,97,0,0,1,15.35-6.65C261.89,216.75,261.7,216,261.25,216.19Z" transform="translate(-147.56 -130.83)"/><path class="cls-14" d="M260.16,220.13l-11.44,3.69c-.45.14-.26.85.19.7l11.45-3.68C260.81,220.69,260.62,220,260.16,220.13Z" transform="translate(-147.56 -130.83)"/><path class="cls-14" d="M269.93,236.48a32.58,32.58,0,0,1-9.47-2.21h-.07a.35.35,0,0,0,.26-.25c.4-1.47.81-2.94,1.22-4.41a.34.34,0,0,0,0-.27.36.36,0,0,0,.4.19l5.08-1c.46-.1.27-.8-.19-.71l-5.08,1a.33.33,0,0,0-.22.5.37.37,0,0,0-.67.1c-.41,1.47-.81,2.94-1.22,4.41a.34.34,0,0,0,.31.44.39.39,0,0,0,0,.72,33.13,33.13,0,0,0,9.66,2.23C270.4,237.25,270.4,236.51,269.93,236.48Z" transform="translate(-147.56 -130.83)"/><path class="cls-15" d="M268.31,261.16l-1.15-1.58.89,0C268.14,260.13,268.23,260.65,268.31,261.16Z" transform="translate(-147.56 -130.83)"/><path class="cls-5" d="M333.35,253.67a1.62,1.62,0,0,1-.11.28,11.08,11.08,0,0,0-2.73-3.73l.13-.15a15.27,15.27,0,0,1,3.18-3,2.78,2.78,0,0,1,1.07-.51,2.37,2.37,0,0,1,1.42.33,6.24,6.24,0,0,1,2.23,2,144.1,144.1,0,0,1,8.29,14.15,1.28,1.28,0,0,1-1.94,1.58L344,264A116.39,116.39,0,0,1,333.35,253.67Z" transform="translate(-147.56 -130.83)"/><path class="cls-5" d="M279,352.32a29.69,29.69,0,0,0-2.48,8.92,1.86,1.86,0,0,1-.27.88,1.49,1.49,0,0,1-.83.48,12.73,12.73,0,0,1-8-.11c-.16-.05-.34-.13-.39-.29s.08-.39.22-.54a13.38,13.38,0,0,1,4.39-3.12,1.87,1.87,0,0,0,.78-.5,1.8,1.8,0,0,0,.25-1,41.79,41.79,0,0,1,2.28-11.66l-.12,0c-.16-.31-.31-.6-.46-.91l.17-.09a8.69,8.69,0,0,0,3.19-2.71c1.4,1.31,2.75,2.66,4.07,4.06.82.88,1.7,2,1.3,3.18a3.32,3.32,0,0,1-1.35,1.48C280.81,351,279.9,351.67,279,352.32Z" transform="translate(-147.56 -130.83)"/><path class="cls-16" d="M268.05,259.62a44.08,44.08,0,0,0-2.11-7.55c.81-.26,1.62-.54,2.41-.84a31.47,31.47,0,0,0,12-7.72l.38-.59a28,28,0,0,1,2.82,2c7,5.69,10,14.81,12.67,23.4.77,2.5,1.55,5,2.32,7.46l.47-.15c2.16-6.4,8.27-10.47,14-14.07q6.86-4.29,13.71-8.61a7.35,7.35,0,0,0,3.13-3l.45.06.21.19a11.08,11.08,0,0,1,2.73,3.73,11.51,11.51,0,0,1-2.17,3.18q-11.86,13.86-24.2,27.33c-2.7,3-5.5,6-9.11,7.65-2.21-.3-4.15-1.79-5.86-3.29-9.11-8-16.44-17.83-23.59-27.66C268.23,260.65,268.14,260.13,268.05,259.62Z" transform="translate(-147.56 -130.83)"/><path class="cls-16" d="M267.16,259.58a53.37,53.37,0,0,1-19.11-4.66c-.05-.22-.1-.45-.14-.68a1.09,1.09,0,0,1,0-.17l.45-.1a44.61,44.61,0,0,0,17.63-1.9,44.08,44.08,0,0,1,2.11,7.55Z" transform="translate(-147.56 -130.83)"/><path class="cls-15" d="M277.71,341.63a8.69,8.69,0,0,1-3.19,2.71l-.17.09a172.79,172.79,0,0,1-10.94-27.61c-1.43-4.76-2.65-9.59-3.87-14.41-4-15.79-8-31.58-11.49-47.49a53.37,53.37,0,0,0,19.11,4.66l1.15,1.58a87.06,87.06,0,0,1,.56,18.48c-.28,5-.71,10.11.73,14.9,1.1,3.63,3.22,6.88,4.41,10.49a43.26,43.26,0,0,1,1.62,8.92q1.47,13.44,2.91,26.89l-.33,0A6.78,6.78,0,0,1,277.71,341.63Z" transform="translate(-147.56 -130.83)"/><path class="cls-6" d="M282.89,347.83c-.13,1.47-2.83,3.07-3.72,4.26a12.26,12.26,0,0,0-2.06,4.42c-.48,2.06.05,4.93-2.41,5.8a12.37,12.37,0,0,1-7.35-.18.36.36,0,0,0-.19.7c3.2.95,9.54,1.65,10.27-2.84a33.43,33.43,0,0,1,.53-3.84,11.6,11.6,0,0,1,2.32-4.28c1.14-1.32,3.18-2.13,3.34-4C283.66,347.36,282.93,347.37,282.89,347.83Z" transform="translate(-147.56 -130.83)"/><path class="cls-6" d="M275,355a4.26,4.26,0,0,0-2.78-1.41c-.47-.05-.46.68,0,.74a3.48,3.48,0,0,1,2.26,1.18C274.82,355.91,275.34,355.39,275,355Z" transform="translate(-147.56 -130.83)"/><path class="cls-6" d="M275.07,353.05a4.51,4.51,0,0,0-2.78-1.63c-.46-.07-.66.63-.19.71a3.91,3.91,0,0,1,2.45,1.44C274.85,353.94,275.37,353.42,275.07,353.05Z" transform="translate(-147.56 -130.83)"/><path class="cls-6" d="M275.42,351.45a4.68,4.68,0,0,0-2.25-2c-.43-.18-.8.45-.37.64a4,4,0,0,1,2,1.76A.37.37,0,0,0,275.42,351.45Z" transform="translate(-147.56 -130.83)"/><path class="cls-6" d="M278.19,346.05c-.56-.49-1.65-.23-2.26,0a3.66,3.66,0,0,0-1.59,1.27,5.66,5.66,0,0,0-1.95-2c-.48-.29-1.58-.88-1.86,0-.22.71.62,1.62,1.09,2.05a4.72,4.72,0,0,0,2.5,1.17.37.37,0,0,0,.33-.11.31.31,0,0,0,.27,0C275.33,348.33,279.68,347.34,278.19,346.05Zm-6.76-.09c-.1-.17-.25-.27-.05-.3s.28.09.39.14a5.1,5.1,0,0,1,.82.55,5,5,0,0,1,1.08,1.31A3.79,3.79,0,0,1,271.43,346Zm4.85,1.31c-.41.14-.83.25-1.25.36a2.84,2.84,0,0,1,.9-.75c.22-.12,1.41-.61,1.66-.32S276.48,347.19,276.28,347.27Z" transform="translate(-147.56 -130.83)"/><path class="cls-6" d="M345.31,260c-1.17-2-2.34-3.93-3.52-5.89-1.73-2.89-3.28-6.46-6.55-7.88-.43-.19-.8.44-.37.63,3.13,1.37,4.63,4.85,6.29,7.62l2.59,4.34c1,1.63,2.64,3.61,2.84,5.54.05.47.78.47.73,0C347.16,262.68,346.15,261.37,345.31,260Z" transform="translate(-147.56 -130.83)"/><path class="cls-6" d="M341.73,259.52a4.12,4.12,0,0,0-1.93,1.85c-.21.42.42.8.64.37a3.46,3.46,0,0,1,1.66-1.59C342.53,260,342.15,259.32,341.73,259.52Z" transform="translate(-147.56 -130.83)"/><path class="cls-6" d="M339.6,257.34a4.72,4.72,0,0,0-1.72,2.44c-.14.45.56.64.7.19a4,4,0,0,1,1.39-2C340.34,257.69,340,257.06,339.6,257.34Z" transform="translate(-147.56 -130.83)"/><path class="cls-6" d="M337.57,255.79c-.58.62-1.16,1.25-1.73,1.88-.32.35.2.87.52.52.57-.63,1.15-1.26,1.73-1.88C338.41,256,337.89,255.44,337.57,255.79Z" transform="translate(-147.56 -130.83)"/><path class="cls-6" d="M336.63,251.17c-.42-.85-1.23-.53-1.7.08a5,5,0,0,0-.69,4.06,10.1,10.1,0,0,1-1.18.79,2.37,2.37,0,0,0-1.12,1.07,1.15,1.15,0,0,0,.93,1.64c1.13,0,1.89-1.81,2.22-2.65a.29.29,0,0,0-.11-.37.27.27,0,0,0,.07-.2,4.75,4.75,0,0,0,.56-.62C336.24,254.11,337.15,252.25,336.63,251.17Zm-3.35,6.12c-.16-.36,0-.58.32-.65.17-.08.34-.18.51-.28l.13-.11C333.91,256.92,333.08,258.45,333.28,257.29Zm1.59-2.59a3.39,3.39,0,0,1,.47-2.71c1.25-1.27.09,1.92-.13,2.26A3.12,3.12,0,0,1,334.87,254.7Z" transform="translate(-147.56 -130.83)"/><path class="cls-17" d="M190.36,140.42a33.22,33.22,0,1,1-33.22,33.22A33.26,33.26,0,0,1,190.36,140.42Z" transform="translate(-147.56 -130.83)"/><path class="cls-18" d="M213.1,209.89l4.29,4.06a18.87,18.87,0,0,1-2.72,1.17l-4-3.82C211.5,210.86,212.31,210.39,213.1,209.89Z" transform="translate(-147.56 -130.83)"/><path class="cls-18" d="M223.21,201.05l4,3.66a24.15,24.15,0,0,1-9.84,9.24l-4.29-4.06A43.15,43.15,0,0,0,223.21,201.05Z" transform="translate(-147.56 -130.83)"/><path class="cls-18" d="M225,198.77l3.38,3.67a22.89,22.89,0,0,1-1.14,2.27l-4-3.66C223.83,200.31,224.42,199.56,225,198.77Z" transform="translate(-147.56 -130.83)"/><path class="cls-19" d="M278.8,251.69s7.66,6.17,1.23,12.29c-5.12,4.88-11.43-1.6-11.43-1.6L217.39,214a24.15,24.15,0,0,0,9.84-9.24Z" transform="translate(-147.56 -130.83)"/><path class="cls-19" d="M233.17,173.64A42.55,42.55,0,0,1,225,198.77c-.57.79-1.16,1.54-1.78,2.28a43.15,43.15,0,0,1-10.11,8.84c-.79.5-1.6,1-2.41,1.41a42.8,42.8,0,1,1,22.48-37.66Zm-9.58,0a33.23,33.23,0,1,0-33.23,33.22A33.26,33.26,0,0,0,223.59,173.64Z" transform="translate(-147.56 -130.83)"/><path class="cls-11" d="M260.54,228.56a2.31,2.31,0,0,1,1.67,2.3,3.31,3.31,0,0,1-1.66,2.62,6.45,6.45,0,0,1-3.11.79,11.75,11.75,0,0,1-9.65-4.78,1.71,1.71,0,0,1-.39-1.71,1.58,1.58,0,0,1,1.33-.64c2.69-.17,5.15,1.54,7.83,1.74a3.61,3.61,0,0,1-2-2.84A11.12,11.12,0,0,1,260.54,228.56Z" transform="translate(-147.56 -130.83)"/><path class="cls-11" d="M221.29,220.56q-.91-1.32-1.74-2.7a.61.61,0,0,1,.73-.87,5.78,5.78,0,0,1,1.71,1.13,14.54,14.54,0,0,1,1.87,1.81l1.1-1a8.22,8.22,0,0,1,1.14-3.3,2.85,2.85,0,0,1,3-1.27,2.62,2.62,0,0,1,1.62,1.69,4.92,4.92,0,0,1,.12,2.41,6.82,6.82,0,0,1-4.37,5.59,3.8,3.8,0,0,1-3-.26,2.68,2.68,0,0,1-1-1.13A14.66,14.66,0,0,0,221.29,220.56Z" transform="translate(-147.56 -130.83)"/></svg>