<svg id="OBJECTS" xmlns="http://www.w3.org/2000/svg" xmlns:xlink="http://www.w3.org/1999/xlink" viewBox="0 0 258.15 199.18"><defs><style>.cls-1{fill:none;}.cls-2{fill:#ffd02d;}.cls-3{clip-path:url(#clip-path);}.cls-4{fill:#294a75;}.cls-5{fill:#0e80c6;}.cls-6{fill:#284a77;}.cls-7{fill:#2490e3;}.cls-8{fill:#fff5bd;}.cls-9{fill:#f2af5c;opacity:0.28;}.cls-10{fill:#ed7e3d;opacity:0.22;}.cls-11,.cls-12{fill:#f9a993;}.cls-12{stroke:#f9a993;stroke-linecap:round;stroke-linejoin:round;stroke-width:1.83px;}.cls-13{fill:#fff;}</style><clipPath id="clip-path" transform="translate(-120.92 -161.75)"><path class="cls-1" d="M154.17,275.91c26,2.54,50,15.46,73.65,25.65,28.52,12.3,57.81,24.44,89.48,22.68C339,323,359.7,316,379.08,306.36V191a20.92,20.92,0,0,0-20.92-20.92H141.84A20.92,20.92,0,0,0,120.92,191v89.86A65.71,65.71,0,0,1,154.17,275.91Z"/></clipPath></defs><title>514715-PJ71AL-192</title><rect class="cls-2" width="258.15" height="176.49" rx="14.6"/><g class="cls-3"><path class="cls-4" d="M263.07,360.94h0a3.72,3.72,0,0,1-3.71-3.71V250.94a3.71,3.71,0,0,1,3.71-3.7h0a3.7,3.7,0,0,1,3.7,3.7V357.23A3.71,3.71,0,0,1,263.07,360.94Z" transform="translate(-120.92 -161.75)"/></g><path class="cls-5" d="M109,38.46h70.38A29.54,29.54,0,0,1,208.88,68v34.46a0,0,0,0,1,0,0H79.41a0,0,0,0,1,0,0V68A29.54,29.54,0,0,1,109,38.46Z"/><path class="cls-6" d="M257,258.54V232.22c0-15-11.5-27.28-25.56-27.28h0c-14.06,0-25.57,12.28-25.57,27.28v26.14c0,.06,0,.12,0,.18Z" transform="translate(-120.92 -161.75)"/><rect class="cls-7" x="71.73" y="96.79" width="137.15" height="5.68" rx="2.75"/><path class="cls-8" d="M233.57,215.76l.26,31.73a4.33,4.33,0,0,1-4,4.58l-51.06.52a4.3,4.3,0,0,1-4.08-4.49l-.26-31.73a4.33,4.33,0,0,1,4-4.58l51.06-.53A4.32,4.32,0,0,1,233.57,215.76Z" transform="translate(-120.92 -161.75)"/><path class="cls-9" d="M233.66,225.86l.17,21.63a4.33,4.33,0,0,1-4,4.58l-51.06.52a4.3,4.3,0,0,1-4.08-4.49l-.18-23.74,31,17.81Z" transform="translate(-120.92 -161.75)"/><polygon class="cls-10" points="53.58 62.61 73.12 73.88 53.76 87.19 53.58 62.61"/><polygon class="cls-10" points="112.57 64.29 94.15 75.14 112.77 86.35 112.57 64.29"/><path class="cls-11" d="M216.5,211.7a6.29,6.29,0,0,0-6.43-6.22,5.79,5.79,0,0,0-4.74,2.62,5.79,5.79,0,0,0-4.74-2.62c-3.31,0-6,3-6,6.74a7.15,7.15,0,0,0,1.9,4.91l0,.05a6.87,6.87,0,0,0,.76.67l8.21,7.23v.1l.05-.05.06.05v-.1c2.57-2.26,5.3-4.29,7.71-6.76C214.93,216.69,216.51,214.22,216.5,211.7Z" transform="translate(-120.92 -161.75)"/><rect class="cls-8" x="39.61" y="60.35" width="26.9" height="3.94" rx="1.91"/><rect class="cls-8" x="60.69" y="70.18" width="26.9" height="3.94" rx="1.91"/><rect class="cls-8" x="30.38" y="70.18" width="26.9" height="3.94" rx="1.91"/><rect class="cls-8" x="19.49" y="60.64" width="13.45" height="3.94" rx="1.35"/><line class="cls-12" x1="157.12" y1="84.18" x2="157.12" y2="22.38"/><polygon class="cls-12" points="158.15 22.38 158.15 41.62 178.55 32 158.15 22.38"/><path class="cls-12" d="M284,245.29a5.18,5.18,0,1,1-5.17-5.51A5.35,5.35,0,0,1,284,245.29Z" transform="translate(-120.92 -161.75)"/><polygon class="cls-13" points="186.67 118.72 188.69 122.4 192.38 124.42 188.69 126.43 186.67 130.12 184.66 126.43 180.97 124.42 184.66 122.4 186.67 118.72"/><polygon class="cls-13" points="213.21 129.92 214.09 131.53 215.71 132.42 214.09 133.3 213.21 134.92 212.32 133.3 210.71 132.42 212.32 131.53 213.21 129.92"/><polygon class="cls-13" points="194.29 142.81 195.39 144.82 197.4 145.92 195.39 147.02 194.29 149.03 193.19 147.02 191.18 145.92 193.19 144.82 194.29 142.81"/><polygon class="cls-13" points="225.67 18.64 228.25 23.34 232.95 25.92 228.25 28.49 225.67 33.2 223.1 28.49 218.4 25.92 223.1 23.34 225.67 18.64"/><polygon class="cls-13" points="232.95 61.08 233.65 62.36 234.92 63.05 233.65 63.75 232.95 65.03 232.25 63.75 230.98 63.05 232.25 62.36 232.95 61.08"/><polygon class="cls-13" points="210.71 34.44 212.13 37.04 214.73 38.46 212.13 39.88 210.71 42.48 209.29 39.88 206.69 38.46 209.29 37.04 210.71 34.44"/><polygon class="cls-13" points="51.38 13.53 53.18 16.83 56.49 18.64 53.18 20.45 51.38 23.75 49.57 20.45 46.26 18.64 49.57 16.83 51.38 13.53"/><polygon class="cls-13" points="69.36 31.95 69.8 32.76 70.6 33.2 69.8 33.63 69.36 34.44 68.92 33.63 68.12 33.2 68.92 32.76 69.36 31.95"/><polygon class="cls-13" points="40.17 26.83 42.87 31.75 47.78 34.44 42.87 37.13 40.17 42.05 37.48 37.13 32.56 34.44 37.48 31.75 40.17 26.83"/><polygon class="cls-13" points="42.71 95.08 44.32 98.02 47.26 99.63 44.32 101.23 42.71 104.17 41.1 101.23 38.16 99.63 41.1 98.02 42.71 95.08"/><polygon class="cls-13" points="17.67 89.73 19.02 92.2 21.48 93.55 19.02 94.89 17.67 97.36 16.33 94.89 13.86 93.55 16.33 92.2 17.67 89.73"/><polygon class="cls-13" points="90.44 109.56 91.62 111.73 93.79 112.92 91.62 114.11 90.44 116.27 89.25 114.11 87.08 112.92 89.25 111.73 90.44 109.56"/><polygon class="cls-13" points="106.31 18.53 107.67 21.02 110.17 22.38 107.67 23.75 106.31 26.24 104.95 23.75 102.46 22.38 104.95 21.02 106.31 18.53"/></svg>